<svg xmlns="http://www.w3.org/2000/svg" width="469" height="60" viewBox="0 0 469 60" fill="none"><path d="M414.149 0.484375C415.55 0.484375 416.831 0.822602 417.99 1.49905C419.198 2.17551 420.165 3.09355 420.889 4.25319C421.614 5.3645 421.977 6.62077 421.977 8.022C421.977 9.3749 421.614 10.6312 420.889 11.7908C420.165 12.9504 419.198 13.8685 417.99 14.5449C416.831 15.2214 415.55 15.5596 414.149 15.5596C412.071 15.5596 410.259 14.8348 408.713 13.3853C407.167 11.8874 406.394 10.0997 406.394 8.022C406.394 5.896 407.167 4.10823 408.713 2.65869C410.259 1.20915 412.071 0.484375 414.149 0.484375ZM421.179 21.2128V58.1762H408.713V31.3596H402.698V21.2128H421.179Z" fill="white"></path><path d="M449.155 20.1257C451.716 20.1257 454.205 20.6089 456.621 21.5752C459.037 22.5416 461.211 23.8945 463.144 25.6339C465.076 27.3734 466.598 29.4511 467.71 31.867C468.869 34.2346 469.449 36.8437 469.449 39.6945C469.449 42.5453 468.869 45.1786 467.71 47.5945C466.598 49.9621 465.076 52.0156 463.144 53.7551C461.211 55.4945 459.037 56.8474 456.621 57.8138C454.205 58.7801 451.716 59.2633 449.155 59.2633C446.595 59.2633 444.106 58.7801 441.69 57.8138C439.274 56.8474 437.1 55.4945 435.167 53.7551C433.235 52.0156 431.688 49.9621 430.529 47.5945C429.418 45.1786 428.862 42.5453 428.862 39.6945C428.862 36.8437 429.418 34.2346 430.529 31.867C431.688 29.4511 433.235 27.3734 435.167 25.6339C437.1 23.8945 439.274 22.5416 441.69 21.5752C444.106 20.6089 446.595 20.1257 449.155 20.1257ZM449.155 32.0844C448.286 32.0844 447.295 32.2777 446.184 32.6642C445.121 33.0508 444.203 33.7997 443.43 34.911C442.657 35.974 442.27 37.5685 442.27 39.6945C442.27 41.7722 442.657 43.3667 443.43 44.478C444.203 45.5893 445.121 46.3382 446.184 46.7248C447.295 47.1113 448.286 47.3046 449.155 47.3046C450.074 47.3046 451.064 47.1113 452.127 46.7248C453.19 46.3382 454.108 45.5893 454.881 44.478C455.654 43.3667 456.041 41.7722 456.041 39.6945C456.041 37.5685 455.654 35.974 454.881 34.911C454.108 33.7997 453.19 33.0508 452.127 32.6642C451.064 32.2777 450.074 32.0844 449.155 32.0844Z" fill="white"></path><path d="M59.4457 21.2128L46.7622 58.176H37.1227L29.9474 36.3605L22.7722 58.176H12.9878L0.449219 21.2128H13.3502L18.786 39.1871L25.019 21.2128H34.8759L41.1089 39.1871L46.5447 21.2128H59.4457Z" fill="white"></path><path d="M81.9861 20.1256C85.465 20.1256 88.5573 20.8987 91.2632 22.4449C93.969 23.9911 96.0708 26.1654 97.5687 28.9678C99.1149 31.7219 99.8879 35.0076 99.8879 38.8247V43.1008H74.7384C75.2699 44.8886 76.3329 46.2173 77.9274 47.0871C79.5219 47.9568 81.3579 48.3916 83.4356 48.3916C86.2381 48.3916 88.654 48.0051 90.6833 47.232C92.761 46.4106 94.3072 45.71 95.3219 45.1302V55.7843C94.0656 56.5574 92.3262 57.3305 90.1035 58.1036C87.9292 58.8766 85.465 59.2632 82.7109 59.2632C80.1017 59.2632 77.565 58.8283 75.1007 57.9586C72.6848 57.0889 70.5105 55.8326 68.5778 54.1898C66.6451 52.547 65.123 50.5659 64.0117 48.2467C62.9004 45.8791 62.3448 43.2216 62.3448 40.2742C62.3448 36.6021 63.1903 33.244 64.8815 30.1999C66.6209 27.1559 68.9643 24.7158 71.9118 22.8798C74.9075 21.0437 78.2656 20.1256 81.9861 20.1256ZM81.6237 30.4174C80.0292 30.4174 78.6521 30.8522 77.4925 31.7219C76.3329 32.5433 75.4873 33.8238 74.9558 35.5632H88.0742C88.0742 33.8238 87.3977 32.5433 86.0448 31.7219C84.7402 30.8522 83.2665 30.4174 81.6237 30.4174Z" fill="white"></path><path d="M123.297 10.3412V21.2128H133.009V30.9972H123.297V41.3615C123.297 43.1492 123.659 44.5746 124.384 45.6376C125.157 46.6523 126.22 47.1596 127.573 47.1596C129.699 47.1596 131.656 46.6281 133.443 45.5651V55.2771C132.67 56.3401 131.438 57.2823 129.747 58.1037C128.104 58.8768 126.075 59.2633 123.659 59.2633C121.34 59.2633 119.214 58.7318 117.281 57.6688C115.348 56.6058 113.778 55.0838 112.57 53.1028C111.41 51.1217 110.831 48.73 110.831 45.9275V30.9972H104.597V23.3871C106.965 22.759 109.284 21.4061 111.555 19.3284C113.875 17.2024 115.566 14.2067 116.629 10.3412H123.297Z" fill="url(#paint0_linear_27_3)"></path><path d="M167 34.911C166.276 34.5245 165.503 34.2345 164.681 34.0413C163.908 33.7997 162.99 33.6789 161.927 33.6789C160.236 33.6789 158.738 34.1862 157.433 35.2009C156.129 36.2156 155.066 37.5443 154.244 39.1872V58.1762H141.778V21.2128H154.244V27.8082C155.404 25.8272 156.684 24.1119 158.086 22.6623C159.535 21.2128 161.42 20.488 163.739 20.488C164.995 20.488 166.082 20.7055 167 21.1403V34.911Z" fill="url(#paint1_linear_27_3)"></path><path d="M187.656 20.1256C189.589 20.1256 191.474 20.5605 193.31 21.4302C195.194 22.2516 196.74 23.3146 197.948 24.6192V21.2128H210.414V58.1762H197.948V52.0156C197.03 54.045 195.629 55.7603 193.745 57.1615C191.86 58.5627 189.589 59.2633 186.932 59.2633C184.178 59.2633 181.593 58.5627 179.177 57.1615C176.761 55.7603 174.78 53.6101 173.233 50.711C171.736 47.7636 170.987 44.0673 170.987 39.622C170.987 35.4667 171.736 31.9394 173.233 29.0403C174.78 26.1413 176.809 23.9428 179.322 22.4449C181.882 20.8987 184.661 20.1256 187.656 20.1256ZM190.266 32.3018C188.478 32.3018 186.98 33.0266 185.772 34.4761C184.612 35.9257 184.033 37.641 184.033 39.622C184.033 41.6031 184.637 43.27 185.845 44.6229C187.052 45.9758 188.647 46.6523 190.628 46.6523C191.691 46.6523 192.778 46.3866 193.889 45.8551C195.001 45.2752 195.943 44.4297 196.716 43.3184C197.538 42.1587 197.948 40.685 197.948 38.8972V35.3459C196.885 34.4761 195.677 33.7514 194.324 33.1715C193.02 32.5917 191.667 32.3018 190.266 32.3018Z" fill="url(#paint2_linear_27_3)"></path><path d="M237.521 20.1256C240.372 20.1256 242.546 20.5847 244.044 21.5027C245.59 22.3724 246.991 23.2905 248.247 24.2568V35.1284C247.136 34.307 245.856 33.6547 244.406 33.1715C243.005 32.6884 241.265 32.4468 239.188 32.4468C238.076 32.4468 236.917 32.7367 235.709 33.3165C234.501 33.8963 233.486 34.7419 232.665 35.8532C231.843 36.9162 231.433 38.2691 231.433 39.9119C231.433 42.3278 232.206 44.1639 233.752 45.4202C235.298 46.6765 237.11 47.3046 239.188 47.3046C241.265 47.3046 243.005 47.063 244.406 46.5798C245.856 46.0483 247.136 45.396 248.247 44.6229V55.4945C246.991 56.4609 245.59 57.3306 244.044 58.1037C242.546 58.8768 240.372 59.2633 237.521 59.2633C234.767 59.2633 232.206 58.756 229.838 57.7413C227.471 56.6783 225.393 55.2529 223.605 53.4652C221.866 51.6291 220.489 49.5514 219.474 47.2321C218.508 44.9129 218.024 42.4728 218.024 39.9119C218.024 37.3511 218.508 34.8868 219.474 32.5192C220.489 30.1517 221.866 28.0498 223.605 26.2137C225.393 24.3293 227.471 22.8556 229.838 21.7926C232.206 20.6813 234.767 20.1256 237.521 20.1256Z" fill="url(#paint3_linear_27_3)"></path><path d="M267.237 5.99258V36.0706L279.05 21.2128H294.126L279.195 37.1578L294.778 58.1762H279.05L271.223 45.7101L267.237 49.9138V58.1762H254.77V5.99258H267.237Z" fill="url(#paint4_linear_27_3)"></path><path d="M314.419 20.1256C317.898 20.1256 320.991 20.8987 323.696 22.4449C326.402 23.9911 328.504 26.1654 330.002 28.9679C331.548 31.722 332.321 35.0076 332.321 38.8248V43.1009H307.171C307.703 44.8887 308.766 46.2174 310.361 47.0872C311.955 47.9569 313.791 48.3918 315.869 48.3918C318.671 48.3918 321.087 48.0052 323.117 47.2321C325.194 46.4107 326.74 45.7101 327.755 45.1303V55.7844C326.499 56.5575 324.759 57.3306 322.537 58.1037C320.362 58.8768 317.898 59.2633 315.144 59.2633C312.535 59.2633 309.998 58.8285 307.534 57.9588C305.118 57.089 302.944 55.8328 301.011 54.1899C299.078 52.5471 297.556 50.5661 296.445 48.2468C295.334 45.8792 294.778 43.2217 294.778 40.2743C294.778 36.6021 295.623 33.244 297.315 30.2C299.054 27.1559 301.397 24.7159 304.345 22.8798C307.341 21.0437 310.699 20.1256 314.419 20.1256ZM314.057 30.4174C312.462 30.4174 311.085 30.8523 309.926 31.722C308.766 32.5434 307.92 33.8238 307.389 35.5633H320.507C320.507 33.8238 319.831 32.5434 318.478 31.722C317.173 30.8523 315.7 30.4174 314.057 30.4174Z" fill="url(#paint5_linear_27_3)"></path><path d="M376.097 5.99258V58.1762H363.631V52.0156C362.713 54.045 361.312 55.7603 359.428 57.1615C357.543 58.5627 355.272 59.2633 352.615 59.2633C349.861 59.2633 347.276 58.5627 344.86 57.1615C342.444 55.7603 340.463 53.6101 338.917 50.711C337.419 47.7636 336.67 44.0673 336.67 39.622C336.67 35.4667 337.419 31.9394 338.917 29.0403C340.463 26.1413 342.492 23.9428 345.005 22.4449C347.566 20.8987 350.344 20.1256 353.34 20.1256C355.272 20.1256 357.157 20.5605 358.993 21.4302C360.877 22.2516 362.423 23.3146 363.631 24.6192V5.99258H376.097ZM355.949 32.3018C354.161 32.3018 352.663 33.0266 351.455 34.4761C350.295 35.9257 349.716 37.641 349.716 39.622C349.716 41.6031 350.32 43.27 351.528 44.6229C352.736 45.9758 354.33 46.6523 356.311 46.6523C357.374 46.6523 358.461 46.3866 359.573 45.8551C360.684 45.2752 361.626 44.4297 362.399 43.3184C363.221 42.1587 363.631 40.685 363.631 38.8972V35.3459C362.568 34.4761 361.36 33.7514 360.007 33.1715C358.703 32.5917 357.35 32.3018 355.949 32.3018Z" fill="url(#paint6_linear_27_3)"></path><path d="M390.303 46.5074C392.091 46.5074 393.613 47.1355 394.869 48.3918C396.174 49.648 396.826 51.1942 396.826 53.0303C396.826 54.8181 396.174 56.3643 394.869 57.6688C393.613 58.9251 392.091 59.5532 390.303 59.5532C388.515 59.5532 386.969 58.9251 385.664 57.6688C384.408 56.3643 383.78 54.8181 383.78 53.0303C383.78 51.1942 384.408 49.648 385.664 48.3918C386.969 47.1355 388.515 46.5074 390.303 46.5074Z" fill="url(#paint7_linear_27_3)"></path><defs><linearGradient id="paint0_linear_27_3" x1="104.957" y1="33.1684" x2="396.983" y2="33.1684" gradientUnits="userSpaceOnUse"><stop stop-color="#0F62FE"></stop><stop offset="1" stop-color="#22D3EE"></stop></linearGradient><linearGradient id="paint1_linear_27_3" x1="104.957" y1="33.1684" x2="396.983" y2="33.1684" gradientUnits="userSpaceOnUse"><stop stop-color="#0F62FE"></stop><stop offset="1" stop-color="#22D3EE"></stop></linearGradient><linearGradient id="paint2_linear_27_3" x1="104.957" y1="33.1684" x2="396.983" y2="33.1684" gradientUnits="userSpaceOnUse"><stop stop-color="#0F62FE"></stop><stop offset="1" stop-color="#22D3EE"></stop></linearGradient><linearGradient id="paint3_linear_27_3" x1="104.957" y1="33.1684" x2="396.983" y2="33.1684" gradientUnits="userSpaceOnUse"><stop stop-color="#0F62FE"></stop><stop offset="1" stop-color="#22D3EE"></stop></linearGradient><linearGradient id="paint4_linear_27_3" x1="104.957" y1="33.1684" x2="396.983" y2="33.1684" gradientUnits="userSpaceOnUse"><stop stop-color="#0F62FE"></stop><stop offset="1" stop-color="#22D3EE"></stop></linearGradient><linearGradient id="paint5_linear_27_3" x1="104.957" y1="33.1684" x2="396.983" y2="33.1684" gradientUnits="userSpaceOnUse"><stop stop-color="#0F62FE"></stop><stop offset="1" stop-color="#22D3EE"></stop></linearGradient><linearGradient id="paint6_linear_27_3" x1="104.957" y1="33.1684" x2="396.983" y2="33.1684" gradientUnits="userSpaceOnUse"><stop stop-color="#0F62FE"></stop><stop offset="1" stop-color="#22D3EE"></stop></linearGradient><linearGradient id="paint7_linear_27_3" x1="104.957" y1="33.1684" x2="396.983" y2="33.1684" gradientUnits="userSpaceOnUse"><stop stop-color="#0F62FE"></stop><stop offset="1" stop-color="#22D3EE"></stop></linearGradient></defs></svg>